<svg xmlns="http://www.w3.org/2000/svg" version="1.1" xmlns:xlink="http://www.w3.org/1999/xlink" xmlns:svgjs="http://svgjs.dev/svgjs" width="2000" height="1265" viewBox="0 0 2000 1265"><g transform="matrix(1,0,0,1,-2.0987313844457276,-2.0403225806452383)"><svg viewBox="0 0 392 248" data-background-color="#121212" preserveAspectRatio="xMidYMid meet" height="1265" width="2000" xmlns="http://www.w3.org/2000/svg" xmlns:xlink="http://www.w3.org/1999/xlink"><g id="tight-bounds" transform="matrix(1,0,0,1,0.4113513513513567,0.4000000000000199)"><svg viewBox="0 0 391.1772972972973 247.19999999999996" height="247.19999999999996" width="391.1772972972973"><g><svg viewBox="0 0 391.1772972972973 247.19999999999996" height="247.19999999999996" width="391.1772972972973"><g><svg viewBox="0 0 391.1772972972973 247.19999999999996" height="247.19999999999996" width="391.1772972972973"><g id="textblocktransform"><svg viewBox="0 0 391.1772972972973 247.19999999999996" height="247.19999999999996" width="391.1772972972973" id="textblock"><g><svg viewBox="0 0 391.1772972972973 247.19999999999996" height="247.19999999999996" width="391.1772972972973"><g transform="matrix(1,0,0,1,0,0)"><svg width="391.1772972972973" viewBox="0.8 -30.25 58.550000000000004 37" height="247.19999999999996" data-palette-color="#ffffff"><path d="M6 3.2L6 3.2Q4.75 3.2 4.13 2.65 3.5 2.1 3.5 1.15L3.5 1.15Q3.5 0.25 4.05-0.8 4.6-1.85 5.6-2.75L5.6-2.75Q5.9-3 6.1-3.05L6.1-3.05Q6.25-3.05 6.35-2.95L6.35-2.95Q6.4-2.9 6.4-2.75L6.4-2.75Q6.4-2.4 5.95-1.95L5.95-1.95Q4.55-0.5 4.55 0.5L4.55 0.5Q4.55 1.05 5.05 1.5 5.55 1.95 6.2 1.9L6.2 1.9Q8.7 1.8 11.35 0.8 14-0.2 16.3-1.98 18.6-3.75 20.1-6.05L20.1-6.05Q21.2-7.65 21.2-8.85L21.2-8.85Q21.2-10.4 19.2-10.4L19.2-10.4Q18.85-10.4 18.4-10.33 17.95-10.25 17.4-10.15L17.4-10.15 14.9-9.6Q11.85-8.95 9.5-8.47 7.15-8 5.3-8L5.3-8Q3.15-8 1.98-8.68 0.8-9.35 0.8-11L0.8-11Q0.8-11.75 1.1-12.8L1.1-12.8Q2.1-16.1 6.45-19.8L6.45-19.8Q9.4-22.3 13.05-24.28 16.7-26.25 20.43-27.43 24.15-28.6 27.4-28.6L27.4-28.6Q29.9-28.6 31.38-27.5 32.85-26.4 32.85-24.5L32.85-24.5Q32.85-22.75 31.6-20.75L31.6-20.75Q31.25-20.25 31-20.25L31-20.25Q30.9-20.25 30.8-20.43 30.7-20.6 30.7-20.8L30.7-20.8Q30.7-20.85 30.73-20.98 30.75-21.1 30.8-21.3L30.8-21.3Q31.2-22.5 31.2-23.6L31.2-23.6Q31.2-25.3 30.03-26.15 28.85-27 26.65-26.8L26.65-26.8Q22.8-26.4 17.85-24.35L17.85-24.35Q14.5-22.95 11.53-21.05 8.55-19.15 6.43-17.03 4.3-14.9 3.5-12.75L3.5-12.75Q3.3-12.35 3.3-11.8L3.3-11.8Q3.3-9.8 7.25-9.8L7.25-9.8Q9.15-9.8 11.43-10.2 13.7-10.6 16.7-11.2L16.7-11.2 18.45-11.55Q19.35-11.7 20.2-11.7L20.2-11.7Q21.8-11.7 22.75-11.05 23.7-10.4 23.7-9.25L23.7-9.25Q23.7-8.2 22.8-6.75L22.8-6.75Q21.95-5.4 20.8-4.17 19.65-2.95 18.25-1.8L18.25-1.8Q15.4 0.5 12.15 1.85 8.9 3.2 6 3.2ZM21.55 6.75L21.55 6.75Q21.2 6.75 20.9 6.6L20.9 6.6Q20.2 6.15 20.2 5.35L20.2 5.35Q20.2 5 20.35 4.7L20.35 4.7Q20.65 4.1 21.7 3.2 22.75 2.3 23.95 1.6L23.95 1.6Q24.45 0.95 24.75 0.4 25.05-0.15 25.2-0.55L25.2-0.55Q26.35-2.65 27.55-4.45 28.75-6.25 29.95-7.8L29.95-7.8Q28.75-8.65 28.75-10.2L28.75-10.2Q28.75-11.5 29.4-12.85L29.4-12.85Q29.8-13.7 30.1-13.9L30.1-13.9Q30.45-14.1 30.55-14L30.55-14Q30.65-14 30.65-13.6L30.65-13.6Q30.65-13.25 30.4-12.65L30.4-12.65Q30.2-12.3 30.2-11.7L30.2-11.7Q30.2-10.45 31.35-9.6L31.35-9.6Q32.15-10.55 32.8-11.5L32.8-11.5Q34.8-14.1 36.6-16.32 38.4-18.55 40.1-20.45L40.1-20.45Q42.3-22.95 44.9-25.2 47.5-27.45 50.2-28.85 52.9-30.25 55.4-30.25L55.4-30.25Q57.2-30.25 58.27-29.55 59.35-28.85 59.35-27.5L59.35-27.5Q59.35-26.4 58.5-24.85L58.5-24.85Q57.6-23.3 56.07-21.45 54.55-19.6 52.35-17.45L52.35-17.45Q49.45-14.55 46.17-12.13 42.9-9.7 39.72-8.22 36.55-6.75 33.9-6.75L33.9-6.75Q32.3-6.75 31.25-7.25L31.25-7.25Q30-5.65 28.9-4.03 27.8-2.4 26.85-0.8L26.85-0.8Q26.8-0.45 26.15 0.6L26.15 0.6Q28.55-0.7 31.95-1.55 35.35-2.4 39.07-2.85 42.8-3.3 46.05-3.25L46.05-3.25Q48.1-3.25 49.17-2.27 50.25-1.3 50.25 0L50.25 0Q50.25 0.15 50.22 0.35 50.2 0.55 50.15 0.8L50.15 0.8Q50.1 1.6 49.77 2.23 49.45 2.85 49.05 2.85L49.05 2.85Q48.5 2.85 48.35 1.35L48.35 1.35Q48 0.05 47.4-0.6 46.8-1.25 45.1-1.25L45.1-1.25Q33.2-1.15 25.05 3.25L25.05 3.25Q24.65 4.05 24.25 4.65 23.85 5.25 23.5 5.65L23.5 5.65Q22.55 6.75 21.55 6.75ZM34.8-8.7L34.8-8.7Q38.6-8.7 43.1-11.4L43.1-11.4Q46.1-13.2 48.82-15.58 51.55-17.95 53.72-20.5 55.9-23.05 57.15-25.25L57.15-25.25Q57.95-26.65 57.95-27.5L57.95-27.5Q57.95-28.6 56.5-28.6L56.5-28.6Q56-28.6 55.3-28.45L55.3-28.45Q52.1-27.8 47.7-24.3L47.7-24.3Q44.8-22 42.02-19.33 39.25-16.65 36.82-13.98 34.4-11.3 32.55-9L32.55-9Q33.7-8.7 34.8-8.7Z" opacity="1" transform="matrix(1,0,0,1,0,0)" fill="#ffffff" class="wordmark-text-0" data-fill-palette-color="primary" id="text-0"></path></svg></g></svg></g></svg></g></svg></g></svg></g><defs></defs></svg><rect width="391.1772972972973" height="247.19999999999996" fill="none" stroke="none" visibility="hidden"></rect></g></svg></g></svg>